<?xml version="1.0" encoding="UTF-8" standalone="no"?>
<!DOCTYPE svg PUBLIC "-//W3C//DTD SVG 1.1//EN" "http://www.w3.org/Graphics/SVG/1.1/DTD/svg11.dtd">
<svg width="100%" height="100%" viewBox="0 0 450 418" version="1.1" xmlns="http://www.w3.org/2000/svg" xmlns:xlink="http://www.w3.org/1999/xlink" xml:space="preserve" xmlns:serif="http://www.serif.com/" style="fill-rule:evenodd;clip-rule:evenodd;stroke-linejoin:round;stroke-miterlimit:2;">
    <rect x="-17.378" y="0" width="479.048" height="426.076" style="fill:white;"/>
    <g transform="matrix(0.755721,0,0,1,-102.258,-226.55)">
        <rect x="137.931" y="228.529" width="185.069" height="311.369" style="fill:rgb(57,92,107);"/>
        <path d="M324.471,228.529C324.471,227.915 323.812,227.417 323,227.417C323,227.417 247.965,227.211 193.451,227.168C162.352,227.144 137.931,227.189 137.931,227.189C136.951,227.189 136.157,227.789 136.157,228.529C136.157,228.529 136.671,328.654 136.888,415.35C137.054,481.538 137.026,539.898 137.026,539.898C137.026,540.276 137.431,540.582 137.931,540.582L323,540.559C323.483,540.559 323.874,540.263 323.874,539.898C323.874,539.898 323.839,481.538 323.951,415.35C324.098,328.655 324.471,228.529 324.471,228.529ZM321.532,229.645C310.803,229.674 243.484,229.851 193.451,229.889C167.275,229.91 145.83,229.881 139.697,229.872C139.635,242.024 139.175,334.524 138.973,415.35C138.817,477.362 138.833,532.502 138.835,539.214L322.125,539.237C322.129,532.631 322.154,477.435 322.048,415.35C321.91,334.004 321.574,240.833 321.532,229.645Z" style="fill:white;"/>
    </g>
    <g transform="matrix(0.755721,0,0,1,50.8513,-226.55)">
        <rect x="137.931" y="228.529" width="185.069" height="311.369" style="fill:rgb(45,171,217);"/>
        <path d="M324.471,228.529C324.471,227.915 323.812,227.417 323,227.417C323,227.417 247.965,227.211 193.451,227.168C162.352,227.144 137.931,227.189 137.931,227.189C136.951,227.189 136.157,227.789 136.157,228.529C136.157,228.529 136.671,328.654 136.888,415.35C137.054,481.538 137.026,539.898 137.026,539.898C137.026,540.276 137.431,540.582 137.931,540.582L323,540.559C323.483,540.559 323.874,540.263 323.874,539.898C323.874,539.898 323.839,481.538 323.951,415.35C324.098,328.655 324.471,228.529 324.471,228.529ZM321.532,229.645C310.803,229.674 243.484,229.851 193.451,229.889C167.275,229.91 145.83,229.881 139.697,229.872C139.635,242.024 139.175,334.524 138.973,415.35C138.817,477.362 138.833,532.502 138.835,539.214L322.125,539.237C322.129,532.631 322.154,477.435 322.048,415.35C321.91,334.004 321.574,240.833 321.532,229.645Z" style="fill:white;"/>
    </g>
    <g transform="matrix(0.755721,0,0,1,203.811,-226.55)">
        <rect x="137.931" y="228.529" width="185.069" height="311.369" style="fill:rgb(72,165,58);"/>
        <path d="M324.471,228.529C324.471,227.915 323.812,227.417 323,227.417C323,227.417 247.965,227.211 193.451,227.168C162.352,227.144 137.931,227.189 137.931,227.189C136.951,227.189 136.157,227.789 136.157,228.529C136.157,228.529 136.671,328.654 136.888,415.35C137.054,481.538 137.026,539.898 137.026,539.898C137.026,540.276 137.431,540.582 137.931,540.582L323,540.559C323.483,540.559 323.874,540.263 323.874,539.898C323.874,539.898 323.839,481.538 323.951,415.35C324.098,328.655 324.471,228.529 324.471,228.529ZM321.532,229.645C310.803,229.674 243.484,229.851 193.451,229.889C167.275,229.91 145.83,229.881 139.697,229.872C139.635,242.024 139.175,334.524 138.973,415.35C138.817,477.362 138.833,532.502 138.835,539.214L322.125,539.237C322.129,532.631 322.154,477.435 322.048,415.35C321.91,334.004 321.574,240.833 321.532,229.645Z" style="fill:white;"/>
    </g>
    <g transform="matrix(0.617978,0,0,1.64341,-78.8356,-538.016)">
        <path d="M240.669,341.119C240.393,342.335 239.904,343.527 239.849,344.73C239.694,348.183 240.93,351.538 241.228,354.846C241.359,356.304 241.409,357.749 241.417,359.181C241.515,375.305 240.258,389.688 240.049,402.526C239.876,413.193 240.029,422.79 240.02,431.425L240.151,464.949C239.733,479.484 239.337,489.212 239.267,495.726C239.125,508.917 239.362,508.917 239.362,508.917L245.89,508.924C245.89,508.924 246.127,508.925 246.191,495.734C246.222,489.22 245.977,479.491 245.787,464.955L246.44,431.432C246.565,422.797 246.868,413.2 246.86,402.534C246.851,389.695 245.819,375.309 246.167,359.186C246.198,357.754 246.27,356.309 246.424,354.851C246.773,351.544 248.062,348.192 247.961,344.739C247.925,343.535 247.454,342.343 247.197,341.126C247.203,340.448 245.744,339.897 243.943,339.895C242.141,339.893 240.674,340.441 240.669,341.119Z" style="fill:white;"/>
    </g>
    <g transform="matrix(1.89246,0,0,-1.86957,-329.432,479.885)">
        <path d="M240.058,245.731C231.296,245.761 223.905,245.831 217.672,245.809C210.138,245.781 204.296,245.634 199.763,245.615C198.101,245.608 196.614,245.61 195.286,245.626C184.09,245.759 184.094,245.864 184.094,245.864L184.091,244.675C184.091,244.675 184.088,244.781 195.284,244.86C196.613,244.869 198.099,244.864 199.761,244.849C204.294,244.809 210.135,244.634 217.669,244.571C223.902,244.518 231.293,244.553 240.055,244.542C240.379,244.541 240.643,244.807 240.644,245.135C240.645,245.463 240.382,245.73 240.058,245.731Z" style="fill:white;"/>
    </g>
    <g transform="matrix(1,0,0,1,-168.56,-226.55)">
        <path d="M345.859,527.152L345.854,527.074C345.854,527.074 344.569,346.446 345.066,275.758C345.151,263.673 345.294,254.793 345.494,250.56C345.559,249.178 345.639,248.25 345.717,247.817C345.996,246.271 347.211,246.074 347.51,246.057C369.445,244.824 378.243,244.479 383.537,244.621C388.928,244.766 390.698,245.409 398.958,246.138C399.045,246.146 411.095,246.65 418.804,250.189C422.298,251.793 424.904,254.057 425.663,256.952C429.384,271.173 433.78,299.783 436.999,330.42C439.701,356.139 441.58,383.287 441.51,404.535C441.5,421.005 440.858,437.943 440.096,452.956C438.754,479.391 436.941,499.849 436.819,501.21C436.827,502.129 436.778,511.461 431.656,519.059C428.55,523.669 423.61,527.655 415.748,528.823L415.546,528.823L415.546,527.424L415.529,528.838C415.529,528.838 415.729,528.797 408.746,528.79C400.902,528.782 384.006,528.819 347.614,529.002C346.643,529.002 345.854,528.213 345.854,527.241L345.859,527.152ZM415.546,527.424L416.472,527.424C416.215,527.424 415.889,527.424 415.555,526.631L415.546,527.424ZM415.484,526.003C422.338,525.006 426.69,521.565 429.442,517.553C434.438,510.272 434.291,501.187 434.291,501.187C434.29,501.138 434.292,501.089 434.297,501.041C434.297,501.041 436.419,480.143 437.875,452.84C438.674,437.866 439.239,420.965 439.23,404.535C439.16,383.363 437.122,356.325 434.247,330.719C430.833,300.302 426.247,271.909 422.442,257.807C421.717,255.112 418.518,253.513 414.928,252.314C407.774,249.925 398.731,249.643 398.657,249.637C390.51,248.957 388.762,248.328 383.447,248.204C378.319,248.084 369.878,248.427 349.227,249.631C349.201,249.968 349.176,250.349 349.159,250.732C348.963,254.94 348.836,263.769 348.752,275.784C348.282,342.606 349.258,507.693 349.366,525.49C384.562,525.676 401.045,525.812 408.764,525.896C414.006,525.954 415.21,525.989 415.484,526.003Z" style="fill:white;"/>
    </g>
    <g transform="matrix(1,0,0,1,-168.56,-226.55)">
        <path d="M526.125,528.435L526.118,528.435C521.865,528.459 518.222,525.968 515.174,521.441C511.102,515.392 508.061,505.592 505.746,493.801C500.082,464.959 498.717,424.056 496.95,397.837C495.797,380.806 494.96,355.583 496.132,330.64C496.87,314.935 498.423,299.344 501.026,285.974C503.694,272.271 507.544,260.881 512.762,253.937C516.477,248.992 520.908,246.21 526.066,246.099C526.082,246.099 526.099,246.099 526.115,246.099C526.115,246.099 533.709,246.142 533.725,246.142C566.485,246.809 581.796,247.048 588.863,247.124C591.962,247.158 593.464,247.16 594.154,247.147C594.273,247.107 594.402,247.088 594.535,247.094L594.864,247.134C600.096,247.021 600.505,247.429 599.384,247.908C601.027,248.362 601.036,248.904 594.421,249.246C593.823,249.277 592.326,249.32 588.866,249.365C581.796,249.457 566.475,249.557 533.709,249.633C533.709,249.633 526.115,249.676 526.163,249.675C522.069,249.809 518.671,252.21 515.764,256.167C510.88,262.815 507.477,273.71 505.032,286.74C502.553,299.954 501.149,315.346 500.368,330.846C499.12,355.624 499.516,380.684 500.485,397.617C501.989,423.755 502.868,464.532 508.293,493.311C510.444,504.719 513.298,514.219 517.203,520.083C519.7,523.833 522.599,526.057 526.111,526.054L526.121,526.055L526.154,526.054L526.164,526.055C562.771,526.464 579.757,526.445 587.64,526.339C592.16,526.278 593.678,526.188 594.187,526.133L594.274,526.111C594.309,526.105 594.343,526.1 594.378,526.095L594.442,526.092L594.444,526.09L594.443,526.091L594.485,526.089C595.06,526.089 595.528,526.557 594.525,528.175C594.525,528.175 594.525,528.332 587.673,528.453C579.782,528.593 562.777,528.686 526.125,528.435Z" style="fill:white;"/>
    </g>
    <g transform="matrix(1,0,0,1,-104.856,-260.165)">
        <g transform="matrix(73.3333,0,0,73.3333,165.853,660.252)">
            <path d="M0.162,-0.688L0.162,0L0.14,0L0.14,-0.688L0,-0.688L0,-0.708L0.302,-0.708L0.302,-0.688L0.162,-0.688Z" style="fill-rule:nonzero;"/>
        </g>
        <g transform="matrix(73.3333,0,0,73.3333,187.559,660.252)">
            <path d="M0.096,-0.633C0.09,-0.633 0.085,-0.635 0.08,-0.64C0.075,-0.645 0.073,-0.651 0.073,-0.66C0.073,-0.667 0.075,-0.674 0.08,-0.679C0.085,-0.684 0.09,-0.686 0.096,-0.686C0.102,-0.686 0.107,-0.684 0.112,-0.679C0.117,-0.674 0.119,-0.667 0.119,-0.66C0.119,-0.651 0.117,-0.645 0.112,-0.64C0.107,-0.635 0.101,-0.633 0.096,-0.633ZM0.085,0L0.085,-0.483L0.107,-0.483L0.107,0L0.085,0Z" style="fill-rule:nonzero;"/>
        </g>
        <g transform="matrix(73.3333,0,0,73.3333,201.639,660.252)">
            <path d="M0.11,-0.361C0.117,-0.403 0.132,-0.436 0.154,-0.462C0.176,-0.487 0.204,-0.499 0.237,-0.499C0.263,-0.499 0.284,-0.493 0.299,-0.482C0.314,-0.47 0.325,-0.455 0.333,-0.438C0.341,-0.42 0.346,-0.401 0.349,-0.38C0.351,-0.359 0.352,-0.339 0.352,-0.32L0.352,0L0.33,0L0.33,-0.32C0.33,-0.337 0.329,-0.355 0.327,-0.374C0.325,-0.393 0.321,-0.41 0.314,-0.426C0.307,-0.441 0.298,-0.454 0.286,-0.464C0.273,-0.474 0.257,-0.479 0.237,-0.479C0.216,-0.479 0.197,-0.473 0.181,-0.461C0.165,-0.448 0.152,-0.432 0.141,-0.413C0.13,-0.394 0.122,-0.372 0.117,-0.349C0.112,-0.325 0.109,-0.302 0.109,-0.28L0.109,0L0.087,0L0.087,-0.361C0.087,-0.369 0.087,-0.379 0.087,-0.39L0.085,-0.457C0.084,-0.468 0.084,-0.476 0.083,-0.483L0.105,-0.483C0.106,-0.476 0.106,-0.468 0.107,-0.457C0.107,-0.446 0.107,-0.435 0.108,-0.424C0.108,-0.412 0.108,-0.401 0.108,-0.39L0.108,-0.361L0.11,-0.361Z" style="fill-rule:nonzero;"/>
        </g>
        <g transform="matrix(73.3333,0,0,73.3333,233.393,660.252)">
            <path d="M0.144,0.146C0.135,0.18 0.124,0.204 0.111,0.219C0.098,0.233 0.08,0.24 0.059,0.24C0.046,0.24 0.035,0.238 0.026,0.233L0.029,0.214C0.032,0.215 0.037,0.217 0.043,0.218C0.048,0.219 0.054,0.22 0.059,0.22C0.08,0.22 0.094,0.211 0.104,0.194C0.113,0.177 0.12,0.154 0.127,0.126L0.154,0.011L0.024,-0.483L0.047,-0.483L0.165,-0.023L0.167,-0.023L0.281,-0.483L0.303,-0.483L0.144,0.146Z" style="fill-rule:nonzero;"/>
        </g>
        <g transform="matrix(73.3333,0,0,73.3333,270.573,660.252)">
            <path d="M0.454,-0.354C0.454,-0.294 0.448,-0.242 0.435,-0.197C0.422,-0.152 0.405,-0.116 0.384,-0.087C0.363,-0.058 0.337,-0.036 0.308,-0.022C0.279,-0.007 0.248,0 0.215,0L0.089,0L0.089,-0.708L0.216,-0.708C0.249,-0.708 0.28,-0.701 0.309,-0.687C0.337,-0.672 0.363,-0.65 0.385,-0.621C0.406,-0.592 0.423,-0.555 0.436,-0.511C0.448,-0.466 0.454,-0.414 0.454,-0.354ZM0.111,-0.688L0.111,-0.02L0.212,-0.02C0.243,-0.02 0.271,-0.027 0.298,-0.04C0.325,-0.053 0.348,-0.074 0.368,-0.101C0.388,-0.128 0.404,-0.163 0.415,-0.205C0.426,-0.247 0.432,-0.297 0.432,-0.354C0.432,-0.411 0.426,-0.461 0.415,-0.503C0.404,-0.545 0.388,-0.58 0.368,-0.607C0.348,-0.634 0.325,-0.655 0.298,-0.668C0.271,-0.681 0.243,-0.688 0.212,-0.688L0.111,-0.688Z" style="fill-rule:nonzero;"/>
        </g>
        <g transform="matrix(73.3333,0,0,73.3333,308.119,660.252)">
            <path d="M0.074,-0.247C0.074,-0.212 0.077,-0.179 0.082,-0.149C0.087,-0.119 0.094,-0.093 0.106,-0.072C0.116,-0.051 0.13,-0.034 0.147,-0.022C0.163,-0.01 0.183,-0.004 0.206,-0.004C0.234,-0.004 0.257,-0.012 0.274,-0.029C0.291,-0.046 0.304,-0.066 0.313,-0.089L0.329,-0.08C0.32,-0.055 0.305,-0.032 0.285,-0.013C0.264,0.006 0.238,0.016 0.206,0.016C0.181,0.016 0.159,0.01 0.14,-0.003C0.121,-0.015 0.105,-0.032 0.092,-0.055C0.079,-0.077 0.069,-0.104 0.062,-0.136C0.055,-0.167 0.052,-0.202 0.052,-0.241C0.052,-0.278 0.055,-0.312 0.062,-0.344C0.069,-0.375 0.078,-0.403 0.091,-0.426C0.104,-0.448 0.119,-0.467 0.138,-0.48C0.157,-0.493 0.178,-0.499 0.203,-0.499C0.229,-0.499 0.251,-0.493 0.269,-0.481C0.286,-0.468 0.301,-0.452 0.312,-0.431C0.323,-0.41 0.33,-0.386 0.335,-0.359C0.34,-0.332 0.342,-0.303 0.342,-0.273L0.342,-0.247L0.074,-0.247ZM0.322,-0.267C0.322,-0.299 0.32,-0.328 0.315,-0.354C0.31,-0.38 0.302,-0.402 0.293,-0.421C0.283,-0.44 0.271,-0.454 0.256,-0.465C0.241,-0.475 0.223,-0.48 0.203,-0.48C0.179,-0.48 0.159,-0.472 0.143,-0.457C0.126,-0.442 0.113,-0.423 0.103,-0.401C0.092,-0.379 0.085,-0.356 0.081,-0.331C0.076,-0.306 0.074,-0.285 0.074,-0.267L0.322,-0.267Z" style="fill-rule:nonzero;"/>
        </g>
        <g transform="matrix(73.3333,0,0,73.3333,336.499,660.252)">
            <path d="M0.18,0L0.151,0L0.024,-0.483L0.047,-0.483L0.165,-0.023L0.167,-0.023L0.281,-0.483L0.303,-0.483L0.18,0Z" style="fill-rule:nonzero;"/>
        </g>
        <g transform="matrix(73.3333,0,0,73.3333,373.679,660.252)">
            <path d="M0.441,-0.091C0.422,-0.052 0.397,-0.024 0.368,-0.008C0.338,0.008 0.309,0.016 0.281,0.016C0.244,0.016 0.212,0.007 0.185,-0.013C0.157,-0.032 0.134,-0.057 0.115,-0.091C0.096,-0.124 0.082,-0.163 0.073,-0.208C0.063,-0.253 0.058,-0.301 0.058,-0.354C0.058,-0.407 0.063,-0.456 0.073,-0.501C0.082,-0.546 0.096,-0.586 0.115,-0.619C0.134,-0.652 0.157,-0.677 0.185,-0.696C0.212,-0.715 0.244,-0.724 0.281,-0.724C0.308,-0.724 0.335,-0.717 0.363,-0.703C0.39,-0.689 0.413,-0.665 0.431,-0.631L0.413,-0.62C0.396,-0.65 0.376,-0.672 0.353,-0.685C0.329,-0.697 0.305,-0.704 0.281,-0.704C0.247,-0.704 0.217,-0.695 0.192,-0.677C0.167,-0.658 0.146,-0.633 0.13,-0.602C0.113,-0.571 0.101,-0.534 0.093,-0.491C0.084,-0.448 0.08,-0.403 0.08,-0.354C0.08,-0.305 0.084,-0.26 0.093,-0.218C0.101,-0.175 0.113,-0.138 0.13,-0.107C0.147,-0.075 0.168,-0.05 0.193,-0.032C0.218,-0.013 0.248,-0.004 0.281,-0.004C0.307,-0.004 0.333,-0.012 0.359,-0.028C0.385,-0.044 0.406,-0.069 0.423,-0.102L0.441,-0.091Z" style="fill-rule:nonzero;"/>
        </g>
        <g transform="matrix(73.3333,0,0,73.3333,407.486,660.252)">
            <path d="M0.087,-0.361C0.087,-0.369 0.087,-0.379 0.087,-0.39L0.085,-0.457C0.084,-0.468 0.084,-0.476 0.083,-0.483L0.105,-0.483C0.106,-0.476 0.106,-0.468 0.107,-0.458C0.107,-0.447 0.107,-0.436 0.108,-0.425C0.108,-0.413 0.108,-0.402 0.108,-0.391L0.108,-0.363L0.111,-0.363C0.12,-0.41 0.135,-0.444 0.155,-0.464C0.174,-0.483 0.196,-0.493 0.22,-0.493C0.225,-0.493 0.229,-0.493 0.232,-0.492L0.232,-0.472C0.231,-0.473 0.229,-0.473 0.226,-0.473L0.22,-0.473C0.201,-0.473 0.185,-0.466 0.171,-0.453C0.157,-0.44 0.146,-0.422 0.137,-0.401C0.128,-0.38 0.121,-0.356 0.116,-0.33C0.111,-0.303 0.109,-0.277 0.109,-0.25L0.109,0L0.087,0L0.087,-0.361Z" style="fill-rule:nonzero;"/>
        </g>
        <g transform="matrix(73.3333,0,0,73.3333,424.353,660.252)">
            <path d="M0.074,-0.247C0.074,-0.212 0.077,-0.179 0.082,-0.149C0.087,-0.119 0.094,-0.093 0.106,-0.072C0.116,-0.051 0.13,-0.034 0.147,-0.022C0.163,-0.01 0.183,-0.004 0.206,-0.004C0.234,-0.004 0.257,-0.012 0.274,-0.029C0.291,-0.046 0.304,-0.066 0.313,-0.089L0.329,-0.08C0.32,-0.055 0.305,-0.032 0.285,-0.013C0.264,0.006 0.238,0.016 0.206,0.016C0.181,0.016 0.159,0.01 0.14,-0.003C0.121,-0.015 0.105,-0.032 0.092,-0.055C0.079,-0.077 0.069,-0.104 0.062,-0.136C0.055,-0.167 0.052,-0.202 0.052,-0.241C0.052,-0.278 0.055,-0.312 0.062,-0.344C0.069,-0.375 0.078,-0.403 0.091,-0.426C0.104,-0.448 0.119,-0.467 0.138,-0.48C0.157,-0.493 0.178,-0.499 0.203,-0.499C0.229,-0.499 0.251,-0.493 0.269,-0.481C0.286,-0.468 0.301,-0.452 0.312,-0.431C0.323,-0.41 0.33,-0.386 0.335,-0.359C0.34,-0.332 0.342,-0.303 0.342,-0.273L0.342,-0.247L0.074,-0.247ZM0.322,-0.267C0.322,-0.299 0.32,-0.328 0.315,-0.354C0.31,-0.38 0.302,-0.402 0.293,-0.421C0.283,-0.44 0.271,-0.454 0.256,-0.465C0.241,-0.475 0.223,-0.48 0.203,-0.48C0.179,-0.48 0.159,-0.472 0.143,-0.457C0.126,-0.442 0.113,-0.423 0.103,-0.401C0.092,-0.379 0.085,-0.356 0.081,-0.331C0.076,-0.306 0.074,-0.285 0.074,-0.267L0.322,-0.267Z" style="fill-rule:nonzero;"/>
        </g>
        <g transform="matrix(73.3333,0,0,73.3333,452.733,660.252)">
            <path d="M0.388,0L0.357,0L0.258,-0.458L0.257,-0.458L0.157,0L0.126,0L0.033,-0.483L0.054,-0.483L0.142,-0.023L0.143,-0.023L0.243,-0.483L0.272,-0.483L0.372,-0.023L0.373,-0.023L0.462,-0.483L0.483,-0.483L0.388,0Z" style="fill-rule:nonzero;"/>
        </g>
    </g>
</svg>
