<?xml version="1.0" encoding="UTF-8" standalone="no"?>
<!DOCTYPE svg PUBLIC "-//W3C//DTD SVG 1.1//EN" "http://www.w3.org/Graphics/SVG/1.1/DTD/svg11.dtd">
<svg width="100%" height="100%" viewBox="0 0 1406 1306" version="1.1" xmlns="http://www.w3.org/2000/svg" xmlns:xlink="http://www.w3.org/1999/xlink" xml:space="preserve" xmlns:serif="http://www.serif.com/" style="fill-rule:evenodd;clip-rule:evenodd;">
    <g transform="matrix(3.125,0,0,3.125,0,0)">
        <rect x="-17.378" y="0" width="479.048" height="426.076" style="fill:white;"/>
        <g transform="matrix(0.755721,0,0,1,-102.258,-226.55)">
            <rect x="137.931" y="228.529" width="185.069" height="311.369" style="fill:rgb(57,92,107);"/>
            <path d="M324.471,228.529C324.471,227.915 323.812,227.417 323,227.417C323,227.417 247.965,227.211 193.451,227.168C162.352,227.144 137.931,227.189 137.931,227.189C136.951,227.189 136.157,227.789 136.157,228.529C136.157,228.529 136.671,328.654 136.888,415.35C137.054,481.538 137.026,539.898 137.026,539.898C137.026,540.276 137.431,540.582 137.931,540.582L323,540.559C323.483,540.559 323.874,540.263 323.874,539.898C323.874,539.898 323.839,481.538 323.951,415.35C324.098,328.655 324.471,228.529 324.471,228.529ZM321.532,229.645C310.803,229.674 243.484,229.851 193.451,229.889C167.275,229.91 145.83,229.881 139.697,229.872C139.635,242.024 139.175,334.524 138.973,415.35C138.817,477.362 138.833,532.502 138.835,539.214L322.125,539.237C322.129,532.631 322.154,477.435 322.048,415.35C321.91,334.004 321.574,240.833 321.532,229.645Z" style="fill:white;"/>
        </g>
        <g transform="matrix(0.755721,0,0,1,50.8513,-226.55)">
            <rect x="137.931" y="228.529" width="185.069" height="311.369" style="fill:rgb(45,171,217);"/>
            <path d="M324.471,228.529C324.471,227.915 323.812,227.417 323,227.417C323,227.417 247.965,227.211 193.451,227.168C162.352,227.144 137.931,227.189 137.931,227.189C136.951,227.189 136.157,227.789 136.157,228.529C136.157,228.529 136.671,328.654 136.888,415.35C137.054,481.538 137.026,539.898 137.026,539.898C137.026,540.276 137.431,540.582 137.931,540.582L323,540.559C323.483,540.559 323.874,540.263 323.874,539.898C323.874,539.898 323.839,481.538 323.951,415.35C324.098,328.655 324.471,228.529 324.471,228.529ZM321.532,229.645C310.803,229.674 243.484,229.851 193.451,229.889C167.275,229.91 145.83,229.881 139.697,229.872C139.635,242.024 139.175,334.524 138.973,415.35C138.817,477.362 138.833,532.502 138.835,539.214L322.125,539.237C322.129,532.631 322.154,477.435 322.048,415.35C321.91,334.004 321.574,240.833 321.532,229.645Z" style="fill:white;"/>
        </g>
        <g transform="matrix(0.755721,0,0,1,203.811,-226.55)">
            <rect x="137.931" y="228.529" width="185.069" height="311.369" style="fill:rgb(72,165,58);"/>
            <path d="M324.471,228.529C324.471,227.915 323.812,227.417 323,227.417C323,227.417 247.965,227.211 193.451,227.168C162.352,227.144 137.931,227.189 137.931,227.189C136.951,227.189 136.157,227.789 136.157,228.529C136.157,228.529 136.671,328.654 136.888,415.35C137.054,481.538 137.026,539.898 137.026,539.898C137.026,540.276 137.431,540.582 137.931,540.582L323,540.559C323.483,540.559 323.874,540.263 323.874,539.898C323.874,539.898 323.839,481.538 323.951,415.35C324.098,328.655 324.471,228.529 324.471,228.529ZM321.532,229.645C310.803,229.674 243.484,229.851 193.451,229.889C167.275,229.91 145.83,229.881 139.697,229.872C139.635,242.024 139.175,334.524 138.973,415.35C138.817,477.362 138.833,532.502 138.835,539.214L322.125,539.237C322.129,532.631 322.154,477.435 322.048,415.35C321.91,334.004 321.574,240.833 321.532,229.645Z" style="fill:white;"/>
        </g>
        <g transform="matrix(0.617978,0,0,1.64341,-78.8356,-538.016)">
            <path d="M240.669,341.119C240.393,342.335 239.904,343.527 239.849,344.73C239.694,348.183 240.93,351.538 241.228,354.846C241.359,356.304 241.409,357.749 241.417,359.181C241.515,375.305 240.258,389.688 240.049,402.526C239.876,413.193 240.029,422.79 240.02,431.425L240.151,464.949C239.733,479.484 239.337,489.212 239.267,495.726C239.125,508.917 239.362,508.917 239.362,508.917L245.89,508.924C245.89,508.924 246.127,508.925 246.191,495.734C246.222,489.22 245.977,479.491 245.787,464.955L246.44,431.432C246.565,422.797 246.868,413.2 246.86,402.534C246.851,389.695 245.819,375.309 246.167,359.186C246.198,357.754 246.27,356.309 246.424,354.851C246.773,351.544 248.062,348.192 247.961,344.739C247.925,343.535 247.454,342.343 247.197,341.126C247.203,340.448 245.744,339.897 243.943,339.895C242.141,339.893 240.674,340.441 240.669,341.119Z" style="fill:white;"/>
        </g>
        <g transform="matrix(1.89246,0,0,-1.86957,-329.432,479.885)">
            <path d="M240.058,245.731C231.296,245.761 223.905,245.831 217.672,245.809C210.138,245.781 204.296,245.634 199.763,245.615C198.101,245.608 196.614,245.61 195.286,245.626C184.09,245.759 184.094,245.864 184.094,245.864L184.091,244.675C184.091,244.675 184.088,244.781 195.284,244.86C196.613,244.869 198.099,244.864 199.761,244.849C204.294,244.809 210.135,244.634 217.669,244.571C223.902,244.518 231.293,244.553 240.055,244.542C240.379,244.541 240.643,244.807 240.644,245.135C240.645,245.463 240.382,245.73 240.058,245.731Z" style="fill:white;"/>
        </g>
        <g transform="matrix(1,0,0,1,-168.56,-226.55)">
            <path d="M345.859,527.152L345.854,527.074C345.854,527.074 344.569,346.446 345.066,275.758C345.151,263.673 345.294,254.793 345.494,250.56C345.559,249.178 345.639,248.25 345.717,247.817C345.996,246.271 347.211,246.074 347.51,246.057C369.445,244.824 378.243,244.479 383.537,244.621C388.928,244.766 390.698,245.409 398.958,246.138C399.045,246.146 411.095,246.65 418.804,250.189C422.298,251.793 424.904,254.057 425.663,256.952C429.384,271.173 433.78,299.783 436.999,330.42C439.701,356.139 441.58,383.287 441.51,404.535C441.5,421.005 440.858,437.943 440.096,452.956C438.754,479.391 436.941,499.849 436.819,501.21C436.827,502.129 436.778,511.461 431.656,519.059C428.55,523.669 423.61,527.655 415.748,528.823L415.546,528.823L415.546,527.424L415.529,528.838C415.529,528.838 415.729,528.797 408.746,528.79C400.902,528.782 384.006,528.819 347.614,529.002C346.643,529.002 345.854,528.213 345.854,527.241L345.859,527.152ZM415.546,527.424L416.472,527.424C416.215,527.424 415.889,527.424 415.555,526.631L415.546,527.424ZM415.484,526.003C422.338,525.006 426.69,521.565 429.442,517.553C434.438,510.272 434.291,501.187 434.291,501.187C434.29,501.138 434.292,501.089 434.297,501.041C434.297,501.041 436.419,480.143 437.875,452.84C438.674,437.866 439.239,420.965 439.23,404.535C439.16,383.363 437.122,356.325 434.247,330.719C430.833,300.302 426.247,271.909 422.442,257.807C421.717,255.112 418.518,253.513 414.928,252.314C407.774,249.925 398.731,249.643 398.657,249.637C390.51,248.957 388.762,248.328 383.447,248.204C378.319,248.084 369.878,248.427 349.227,249.631C349.201,249.968 349.176,250.349 349.159,250.732C348.963,254.94 348.836,263.769 348.752,275.784C348.282,342.606 349.258,507.693 349.366,525.49C384.562,525.676 401.045,525.812 408.764,525.896C414.006,525.954 415.21,525.989 415.484,526.003Z" style="fill:white;"/>
        </g>
        <g transform="matrix(1,0,0,1,-168.56,-226.55)">
            <path d="M526.125,528.435L526.118,528.435C521.865,528.459 518.222,525.968 515.174,521.441C511.102,515.392 508.061,505.592 505.746,493.801C500.082,464.959 498.717,424.056 496.95,397.837C495.797,380.806 494.96,355.583 496.132,330.64C496.87,314.935 498.423,299.344 501.026,285.974C503.694,272.271 507.544,260.881 512.762,253.937C516.477,248.992 520.908,246.21 526.066,246.099C526.082,246.099 526.099,246.099 526.115,246.099C526.115,246.099 533.709,246.142 533.725,246.142C566.485,246.809 581.796,247.048 588.863,247.124C591.962,247.158 593.464,247.16 594.154,247.147C594.273,247.107 594.402,247.088 594.535,247.094L594.864,247.134C600.096,247.021 600.505,247.429 599.384,247.908C601.027,248.362 601.036,248.904 594.421,249.246C593.823,249.277 592.326,249.32 588.866,249.365C581.796,249.457 566.475,249.557 533.709,249.633C533.709,249.633 526.115,249.676 526.163,249.675C522.069,249.809 518.671,252.21 515.764,256.167C510.88,262.815 507.477,273.71 505.032,286.74C502.553,299.954 501.149,315.346 500.368,330.846C499.12,355.624 499.516,380.684 500.485,397.617C501.989,423.755 502.868,464.532 508.293,493.311C510.444,504.719 513.298,514.219 517.203,520.083C519.7,523.833 522.599,526.057 526.111,526.054L526.121,526.055L526.154,526.054L526.164,526.055C562.771,526.464 579.757,526.445 587.64,526.339C592.16,526.278 593.678,526.188 594.187,526.133L594.274,526.111C594.309,526.105 594.343,526.1 594.378,526.095L594.442,526.092L594.444,526.09L594.443,526.091L594.485,526.089C595.06,526.089 595.528,526.557 594.525,528.175C594.525,528.175 594.525,528.332 587.673,528.453C579.782,528.593 562.777,528.686 526.125,528.435Z" style="fill:white;"/>
        </g>
        <g transform="matrix(0.373465,0,0,0.373465,224.147,371.822)">
            <g transform="matrix(1,0,0,1,-514.303,-82.5105)">
                <g transform="matrix(1,0,0,1,-218.222,-286.357)">
                    <path d="M249.4,310.46C249.01,311.38 249.03,312.5 249.09,314.8C249.14,317.1 249.48,318.32 249.66,321.95C249.85,325.59 249.84,328.09 250.03,332.99C250.22,337.88 250.37,340.73 250.63,346.42C250.89,352.11 251.03,355.39 251.32,361.43C251.61,367.48 251.72,370.88 252.07,376.65C252.41,382.41 252.57,385.25 253.05,390.25C253.53,395.24 253.85,397.63 254.47,401.63C255.09,405.63 255.21,407.52 256.15,410.26C257.09,412.99 257.94,414.27 259.19,415.31C260.45,416.36 261.46,416.13 262.42,415.48C263.39,414.83 263.59,413.55 264,412.07C264.41,410.59 264.83,409.65 264.47,408.09C264.12,406.52 263.13,404.89 262.23,404.23C261.33,403.56 260.51,403.84 259.97,404.75C259.43,405.65 259.48,407.31 259.54,408.76C259.59,410.2 259.91,410.81 260.24,411.97C260.58,413.13 261.09,414.15 261.24,414.55C261.38,414.95 261.33,415.03 260.98,413.95C260.62,412.88 260.25,411.74 259.46,409.17C258.68,406.61 257.89,404.98 257.06,401.15C256.22,397.31 255.86,394.94 255.27,390.01C254.69,385.08 254.52,382.25 254.14,376.52C253.77,370.78 253.65,367.37 253.41,361.34C253.16,355.31 253.04,352.02 252.93,346.34C252.81,340.67 252.77,337.85 252.82,332.95C252.87,328.05 253.24,325.54 253.19,321.84C253.14,318.14 253,316.76 252.57,314.44C252.14,312.12 251.68,311.03 251.04,310.23C250.41,309.43 249.8,309.55 249.4,310.46" style="fill-rule:nonzero;stroke:black;stroke-width:1px;"/>
                </g>
                <g transform="matrix(1,0,0,1,-218.222,-286.357)">
                    <path d="M221.9,366.33C222.59,366.64 223.11,366.51 224.98,366.42C226.85,366.33 227.94,366.42 231.26,365.88C234.58,365.34 237.18,364.66 241.56,363.71C245.94,362.76 248.48,362.16 253.16,361.12C257.85,360.08 260.75,359.36 265,358.5C269.25,357.63 271.4,357.49 274.42,356.8C277.44,356.1 279.01,355.64 280.1,355.02C281.19,354.41 281.12,353.95 279.88,353.74C278.64,353.52 277,353.56 273.91,353.96C270.82,354.35 268.69,354.82 264.42,355.7C260.16,356.58 257.26,357.39 252.57,358.35C247.88,359.32 245.35,359.82 240.96,360.52C236.57,361.21 233.93,361.31 230.61,361.84C227.29,362.36 226.18,362.54 224.36,363.14C222.54,363.75 221.99,364.24 221.5,364.88C221,365.52 221.2,366.02 221.9,366.33" style="fill-rule:nonzero;stroke:black;stroke-width:1px;"/>
                </g>
                <g transform="matrix(1,0,0,1,-218.222,-286.357)">
                    <path d="M298.71,350.1C298.22,350.86 297.88,351.7 297.8,353.83C297.71,355.96 297.96,357.48 298.27,360.75C298.58,364.01 298.79,366.14 299.35,370.15C299.91,374.15 300.4,376.78 301.09,380.76C301.79,384.73 302.03,387.03 302.83,390.02C303.64,393 304.21,394.11 305.1,395.67C306,397.23 306.63,397.42 307.31,397.82C307.99,398.22 308.24,397.79 308.49,397.67C308.73,397.55 308.56,397.36 308.53,397.21C308.5,397.06 308.48,397.45 308.34,396.92C308.2,396.39 308.21,396.13 307.84,394.57C307.47,393 307.17,391.97 306.49,389.09C305.8,386.21 305.14,384.03 304.42,380.16C303.71,376.28 303.3,373.68 302.9,369.72C302.5,365.76 302.72,363.6 302.43,360.36C302.13,357.12 301.85,355.6 301.42,353.54C300.99,351.47 300.81,350.73 300.27,350.05C299.73,349.36 299.2,349.34 298.71,350.1" style="fill-rule:nonzero;stroke:black;stroke-width:1px;"/>
                </g>
                <g transform="matrix(1,0,0,1,-218.222,-286.357)">
                    <path d="M295.76,311.72C296.05,311.17 295.7,310.56 295.57,310.44C295.44,310.32 295.12,310.86 295.13,311.11C295.13,311.36 295.26,311.55 295.6,311.69C295.94,311.83 296.3,311.91 296.82,311.8C297.34,311.7 297.73,311.4 298.21,311.17C298.7,310.93 298.84,310.83 299.25,310.63C299.65,310.43 299.92,310.53 300.24,310.17C300.56,309.81 300.91,309.36 300.84,308.83C300.77,308.29 300.47,307.9 299.89,307.5C299.31,307.1 298.78,306.96 297.94,306.81C297.09,306.66 296.64,306.51 295.66,306.75C294.69,306.98 293.75,307.15 293.06,308C292.37,308.85 292.24,310.01 292.22,310.98C292.19,311.95 292.55,312.41 292.93,312.84C293.31,313.28 293.54,313.37 294.11,313.15C294.68,312.92 295.47,312.26 295.76,311.72" style="fill-rule:nonzero;stroke:black;stroke-width:1px;"/>
                </g>
                <g transform="matrix(1,0,0,1,-218.222,-286.357)">
                    <path d="M334.53,347.64C334.07,347.86 334.11,348.04 333.76,348.81C333.41,349.58 332.96,349.84 332.77,351.48C332.59,353.13 332.58,354.39 332.82,357.04C333.06,359.68 333.51,361.27 333.98,364.73C334.45,368.19 334.64,370.34 335.16,374.33C335.69,378.32 336.07,380.91 336.61,384.68C337.16,388.45 337.35,390.44 337.89,393.2C338.42,395.96 338.73,396.98 339.26,398.46C339.79,399.93 339.98,400.27 340.54,400.57C341.09,400.87 341.57,400.7 342.05,399.98C342.54,399.26 342.8,398.67 342.97,396.96C343.15,395.25 343.13,394.21 342.92,391.42C342.71,388.64 342.28,386.8 341.93,383.05C341.58,379.29 341.38,376.73 341.19,372.66C340.99,368.6 340.78,366.28 340.94,362.72C341.1,359.17 341.44,357.61 341.99,354.88C342.53,352.16 342.68,351.03 343.68,349.1C344.67,347.16 345.32,346.54 346.97,345.21C348.61,343.88 349.71,343.26 351.92,342.44C354.13,341.62 355.36,341.13 358.02,341.12C360.68,341.11 362.35,341.26 365.24,342.38C368.12,343.5 369.9,344.43 372.46,346.72C375.01,349.01 376.09,350.55 378.03,353.85C379.96,357.14 380.76,359.24 382.12,363.17C383.48,367.1 383.94,369.59 384.81,373.49C385.68,377.39 385.84,379.29 386.47,382.66C387.09,386.03 387.18,387.71 387.96,390.34C388.74,392.96 389.41,394.01 390.36,395.78C391.31,397.54 391.79,398.17 392.71,399.15C393.63,400.14 394.11,400.34 394.96,400.71C395.81,401.08 396.45,401.19 396.96,400.99C397.46,400.79 397.63,400.18 397.48,399.71C397.34,399.24 396.73,399.12 396.23,398.65C395.72,398.18 395.52,398.22 394.95,397.35C394.37,396.48 394.06,395.92 393.35,394.31C392.65,392.7 392.17,391.76 391.43,389.3C390.69,386.84 390.39,385.3 389.64,382.01C388.9,378.71 388.68,376.77 387.72,372.81C386.76,368.86 386.28,366.31 384.86,362.22C383.43,358.13 382.65,355.93 380.6,352.35C378.56,348.78 377.46,347 374.65,344.34C371.85,341.68 369.91,340.51 366.6,339.07C363.28,337.64 361.28,337.24 358.06,337.17C354.84,337.11 353.18,337.67 350.49,338.73C347.81,339.79 346.58,340.72 344.63,342.49C342.67,344.25 341.93,345.23 340.72,347.57C339.51,349.91 339.18,351.19 338.57,354.19C337.96,357.2 337.82,358.87 337.67,362.59C337.53,366.3 337.76,368.65 337.85,372.78C337.94,376.91 338.13,379.43 338.13,383.22C338.12,387 337.71,388.88 337.8,391.7C337.89,394.51 338.13,395.62 338.57,397.3C339.01,398.99 339.42,399.5 340,400.12C340.58,400.74 341.05,400.82 341.47,400.4C341.9,399.97 342.07,399.59 342.12,398.01C342.18,396.44 342.18,395.3 341.76,392.53C341.33,389.76 340.62,387.86 339.98,384.15C339.34,380.43 338.96,377.89 338.56,373.94C338.15,369.98 338.1,367.83 337.96,364.38C337.82,360.92 337.99,359.25 337.84,356.66C337.69,354.07 337.44,352.95 337.21,351.43C336.98,349.9 336.94,349.78 336.7,349.04C336.47,348.3 336.48,347.98 336.04,347.71C335.61,347.43 334.98,347.42 334.53,347.64" style="fill-rule:nonzero;stroke:black;stroke-width:1px;"/>
                </g>
                <g transform="matrix(1,0,0,1,-218.222,-286.357)">
                    <path d="M415.72,344.96C415.19,345.14 414.69,345.29 414.32,346.33C413.94,347.38 413.65,348.21 413.84,350.17C414.02,352.13 414.27,353.46 415.23,356.13C416.19,358.81 416.98,360.49 418.63,363.53C420.28,366.58 421.34,368.41 423.49,371.37C425.64,374.34 426.84,375.89 429.4,378.37C431.95,380.85 433.37,381.98 436.27,383.78C439.18,385.58 440.89,386.58 443.93,387.38C446.96,388.17 448.59,388.2 451.45,387.74C454.31,387.27 455.68,386.69 458.21,385.05C460.74,383.4 461.96,382.15 464.12,379.51C466.28,376.88 467.36,375.19 469.02,371.88C470.69,368.57 471.4,366.51 472.45,362.96C473.5,359.4 473.96,357.25 474.28,354.11C474.59,350.97 474.55,349.56 474.04,347.24C473.53,344.92 472.93,343.79 471.74,342.52C470.54,341.25 469.57,340.83 468.06,340.87C466.55,340.91 465.52,341.28 464.19,342.71C462.86,344.14 462.06,345.24 461.41,348.02C460.76,350.79 461.01,352.61 460.95,356.57C460.88,360.54 460.88,363.1 461.08,367.83C461.28,372.57 461.52,375.14 461.96,380.23C462.39,385.33 462.52,388.34 463.27,393.32C464.01,398.31 464.63,400.8 465.69,405.16C466.74,409.53 467.37,411.49 468.55,415.14C469.73,418.78 470.4,420.38 471.6,423.39C472.81,426.41 473.35,427.79 474.58,430.2C475.81,432.62 476.81,433.73 477.74,435.46C478.68,437.2 479.11,437.75 479.26,438.86C479.4,439.97 479.23,440.26 478.46,441.02C477.69,441.77 477.21,442.06 475.43,442.63C473.64,443.2 472.4,443.44 469.55,443.85C466.69,444.25 464.79,444.51 461.17,444.66C457.55,444.81 455.58,444.81 451.46,444.59C447.33,444.37 445,444 440.54,443.55C436.07,443.11 433.42,442.72 429.13,442.37C424.84,442.02 422.52,441.98 419.1,441.81C415.67,441.64 414.1,441.32 412,441.54C409.9,441.76 409.47,442.47 408.61,442.9C407.74,443.33 407.83,443.41 407.67,443.68C407.5,443.94 407.54,444.06 407.79,444.23C408.04,444.4 408.06,444.44 408.92,444.54C409.78,444.64 410.07,444.61 412.08,444.73C414.09,444.85 415.59,445.03 418.97,445.14C422.34,445.25 424.68,445.02 428.93,445.25C433.19,445.49 435.79,445.87 440.25,446.34C444.71,446.8 447.06,447.22 451.24,447.59C455.43,447.96 457.41,448.08 461.18,448.2C464.96,448.31 466.96,448.55 470.11,448.18C473.26,447.8 474.81,447.37 476.95,446.31C479.09,445.25 479.76,444.4 480.8,442.88C481.84,441.37 482.13,440.54 482.16,438.75C482.2,436.96 481.83,435.99 480.98,433.94C480.12,431.88 479.17,430.83 477.89,428.46C476.6,426.1 475.89,424.96 474.55,422.11C473.21,419.27 472.46,417.74 471.18,414.23C469.9,410.72 469.25,408.8 468.14,404.55C467.04,400.29 466.4,397.86 465.67,392.96C464.93,388.06 464.81,385.08 464.46,380.04C464.12,375 463.92,372.43 463.93,367.78C463.94,363.12 464.15,360.53 464.51,356.77C464.87,353.01 465.27,351.39 465.76,348.97C466.24,346.54 466.45,345.8 466.95,344.65C467.44,343.51 467.69,343.31 468.21,343.22C468.73,343.13 469.06,343.29 469.55,344.2C470.04,345.12 470.46,345.9 470.65,347.8C470.84,349.7 470.81,350.87 470.5,353.71C470.18,356.55 469.99,358.67 469.07,361.99C468.16,365.3 467.46,367.25 465.9,370.29C464.34,373.32 463.24,374.84 461.29,377.16C459.33,379.49 458.21,380.5 456.13,381.91C454.05,383.33 453.12,383.86 450.87,384.24C448.62,384.61 447.43,384.48 444.88,383.79C442.32,383.1 440.71,382.37 438.09,380.8C435.47,379.23 434.11,378.23 431.78,375.93C429.44,373.64 428.32,372.16 426.43,369.32C424.54,366.49 423.6,364.7 422.32,361.74C421.05,358.77 420.84,357.01 420.07,354.52C419.3,352.02 419.01,350.86 418.49,349.25C417.96,347.64 417.76,347.23 417.45,346.47C417.15,345.7 417.32,345.74 416.97,345.44C416.63,345.14 416.26,344.78 415.72,344.96" style="fill-rule:nonzero;stroke:black;stroke-width:1px;"/>
                </g>
                <g transform="matrix(1,0,0,1,-218.222,-286.357)">
                    <path d="M645.7,338.66C645.86,337.94 645.62,337.18 645.06,336.17C644.5,335.16 643.99,334.59 642.89,333.61C641.79,332.62 641.08,332.03 639.57,331.24C638.05,330.44 637.17,330.03 635.29,329.64C633.41,329.25 632.48,329.07 630.17,329.29C627.86,329.51 626.41,329.54 623.73,330.74C621.06,331.93 619.57,332.88 616.81,335.26C614.06,337.65 612.51,339.32 609.97,342.68C607.43,346.04 606.05,348.1 604.11,352.08C602.17,356.05 601.26,358.34 600.27,362.54C599.29,366.74 598.91,369.17 599.19,373.08C599.47,376.98 600,379.08 601.66,382.04C603.33,385 604.69,386.22 607.52,387.87C610.35,389.52 612.2,389.89 615.79,390.3C619.38,390.7 621.65,390.61 625.47,389.9C629.3,389.18 631.26,388.47 634.92,386.71C638.58,384.95 640.55,383.86 643.78,381.09C647.02,378.32 648.72,376.66 651.1,372.88C653.47,369.1 654.32,366.78 655.66,362.17C657,357.57 657.39,354.92 657.79,349.86C658.19,344.8 658.09,342.12 657.67,336.88C657.26,331.64 656.66,328.8 655.73,323.68C654.8,318.56 654.24,315.91 653.02,311.29C651.81,306.66 650.98,304.33 649.65,300.57C648.32,296.8 647.64,294.69 646.38,292.45C645.11,290.22 644.26,289.53 643.31,289.38C642.37,289.23 641.66,289.8 641.65,291.7C641.64,293.61 642.07,295.11 643.26,298.9C644.45,302.69 645.75,305.26 647.6,310.64C649.44,316.02 650.58,319.48 652.5,325.81C654.43,332.13 655.43,335.81 657.22,342.27C659.02,348.74 659.9,352.18 661.48,358.13C663.07,364.08 663.86,367.14 665.14,372.02C666.43,376.9 666.9,379.07 667.91,382.54C668.91,386.02 669.36,387.4 670.18,389.39C671,391.38 671.49,391.63 672.01,392.49C672.54,393.35 672.49,393.48 672.79,393.69C673.09,393.9 673.32,393.89 673.5,393.54C673.68,393.19 673.8,392.95 673.69,391.93C673.57,390.9 673.56,390.44 672.93,388.4C672.29,386.36 671.65,385.12 670.51,381.73C669.37,378.34 668.66,376.25 667.23,371.43C665.79,366.62 664.96,363.56 663.32,357.63C661.68,351.7 660.79,348.26 659.02,341.78C657.26,335.3 656.27,331.62 654.48,325.23C652.69,318.84 651.67,315.32 650.09,309.85C648.5,304.38 647.72,301.61 646.55,297.87C645.38,294.13 645.01,292.73 644.25,291.15C643.5,289.57 642.96,289.43 642.77,289.97C642.59,290.51 642.49,291.54 643.32,293.86C644.16,296.19 645.48,297.97 646.95,301.59C648.42,305.2 649.37,307.44 650.67,311.94C651.97,316.44 652.52,319.08 653.47,324.1C654.41,329.12 654.99,331.94 655.39,337.06C655.78,342.17 655.85,344.78 655.43,349.66C655,354.54 654.57,357.11 653.26,361.46C651.95,365.82 651.12,367.96 648.86,371.46C646.6,374.95 645.02,376.43 641.98,378.94C638.93,381.45 637.06,382.43 633.64,383.99C630.23,385.55 628.4,386.13 624.9,386.73C621.4,387.32 619.31,387.32 616.16,386.98C613.01,386.64 611.5,386.32 609.15,385.02C606.8,383.72 605.82,382.91 604.42,380.48C603.03,378.04 602.44,376.31 602.17,372.85C601.89,369.39 602.14,367.08 603.05,363.19C603.96,359.29 604.83,357.08 606.71,353.37C608.6,349.66 609.98,347.69 612.47,344.64C614.96,341.59 616.55,340.11 619.15,338.12C621.75,336.14 623.16,335.67 625.46,334.72C627.75,333.76 628.83,333.57 630.62,333.34C632.41,333.1 633.05,333.17 634.39,333.52C635.74,333.88 636.23,334.39 637.34,335.11C638.46,335.83 639,336.39 639.99,337.12C640.97,337.85 641.39,338.24 642.25,338.77C643.11,339.29 643.58,339.77 644.27,339.75C644.96,339.73 645.54,339.37 645.7,338.66" style="fill-rule:nonzero;stroke:black;stroke-width:1px;"/>
                </g>
                <g transform="matrix(1,0,0,1,-218.222,-286.357)">
                    <path d="M690.07,379.57C690.43,379.97 690.71,380.31 691.74,380.26C692.77,380.21 693.55,380.17 695.22,379.34C696.88,378.5 697.96,377.88 700.08,376.08C702.2,374.28 703.38,372.92 705.82,370.32C708.26,367.73 709.88,366.06 712.3,363.1C714.73,360.15 716.04,358.52 717.94,355.55C719.85,352.57 720.81,351.03 721.81,348.22C722.81,345.41 722.97,344.03 722.95,341.49C722.92,338.95 722.71,337.79 721.68,335.54C720.65,333.29 719.92,332.09 717.81,330.24C715.7,328.4 714.17,327.41 711.14,326.32C708.12,325.23 706.19,324.85 702.67,324.81C699.16,324.78 697.16,325.11 693.57,326.14C689.98,327.18 688.04,327.83 684.73,329.97C681.41,332.1 679.58,333.49 676.99,336.82C674.39,340.14 673.14,342.3 671.75,346.59C670.36,350.89 669.98,353.64 670.03,358.28C670.09,362.92 670.39,365.46 672.04,369.78C673.68,374.11 674.98,376.47 678.25,379.92C681.53,383.37 683.95,384.81 688.4,387.02C692.85,389.23 695.45,389.88 700.52,390.98C705.6,392.07 708.6,392.41 713.78,392.49C718.95,392.58 721.68,392.2 726.4,391.39C731.12,390.59 733.65,389.75 737.4,388.47C741.15,387.18 742.77,386.34 745.17,384.96C747.57,383.58 748.24,382.74 749.4,381.56C750.56,380.37 750.73,379.84 750.98,379.04C751.22,378.24 750.85,377.85 750.63,377.56C750.42,377.27 750.11,377.44 749.9,377.57C749.69,377.7 750.03,377.84 749.58,378.2C749.13,378.57 748.87,378.65 747.65,379.4C746.42,380.16 745.7,380.69 743.46,381.97C741.21,383.25 739.91,384.4 736.41,385.8C732.91,387.2 730.48,388.08 725.96,388.95C721.44,389.82 718.8,390.21 713.81,390.16C708.82,390.11 705.88,389.76 701.01,388.71C696.14,387.65 693.65,386.99 689.45,384.9C685.26,382.81 683.04,381.44 680.03,378.24C677.02,375.04 675.87,372.9 674.4,368.9C672.92,364.9 672.66,362.55 672.65,358.26C672.64,353.97 673.03,351.38 674.34,347.45C675.66,343.52 676.83,341.58 679.24,338.6C681.64,335.63 683.32,334.43 686.36,332.58C689.4,330.73 691.2,330.18 694.44,329.37C697.68,328.55 699.51,328.34 702.56,328.5C705.62,328.66 707.19,329.21 709.73,330.17C712.27,331.13 713.5,331.93 715.28,333.3C717.06,334.67 717.75,335.39 718.61,337.03C719.48,338.66 719.66,339.48 719.6,341.47C719.54,343.45 719.23,344.5 718.31,346.94C717.39,349.38 716.73,350.9 714.99,353.67C713.24,356.45 711.98,358.06 709.59,360.81C707.19,363.56 705.53,365.17 703,367.44C700.47,369.72 698.98,370.59 696.92,372.19C694.86,373.78 693.97,374.37 692.71,375.4C691.44,376.43 691.15,376.77 690.59,377.34C690.04,377.92 690.04,377.83 689.93,378.27C689.83,378.72 689.7,379.17 690.07,379.57" style="fill-rule:nonzero;stroke:black;stroke-width:1px;"/>
                </g>
                <g transform="matrix(1,0,0,1,-218.222,-286.357)">
                    <path d="M759.4,333.27C758.99,333.87 758.98,334.41 758.88,336.03C758.79,337.65 758.44,338.72 758.93,341.37C759.43,344.02 760.25,345.8 761.37,349.27C762.49,352.74 762.96,354.81 764.53,358.72C766.1,362.62 767.2,364.94 769.22,368.8C771.25,372.65 772.44,374.7 774.64,377.97C776.84,381.25 777.97,382.8 780.21,385.19C782.44,387.57 783.62,388.61 785.83,389.92C788.05,391.23 789.21,391.65 791.29,391.73C793.36,391.81 794.48,391.51 796.21,390.31C797.93,389.11 798.81,388.18 799.91,385.74C801.01,383.29 801.13,381.61 801.69,378.08C802.25,374.54 802.3,372.23 802.71,368.06C803.12,363.89 803.3,361.47 803.74,357.24C804.17,353.01 804.37,350.64 804.89,346.92C805.41,343.19 805.87,341.47 806.33,338.6C806.8,335.73 806.89,334.63 807.23,332.57C807.57,330.5 807.84,329.65 808.02,328.28C808.2,326.91 808.14,326.47 808.13,325.73C808.13,324.98 808.17,324.87 807.99,324.56C807.81,324.26 807.6,324.09 807.23,324.2C806.85,324.3 806.56,324.41 806.11,325.09C805.66,325.77 805.39,326.22 804.95,327.59C804.52,328.97 804.35,329.87 803.93,331.97C803.51,334.06 803.26,335.15 802.84,338.06C802.41,340.98 802.23,342.76 801.81,346.53C801.39,350.3 801.2,352.69 800.73,356.92C800.26,361.15 800.03,363.58 799.47,367.68C798.91,371.78 798.58,374.1 797.93,377.41C797.28,380.73 796.95,382.16 796.23,384.26C795.5,386.36 795.26,387.01 794.32,387.92C793.37,388.83 792.84,388.99 791.5,388.81C790.17,388.64 789.41,388.23 787.64,387.04C785.87,385.85 784.75,385.01 782.65,382.85C780.55,380.7 779.3,379.34 777.14,376.26C774.98,373.18 773.77,371.16 771.85,367.43C769.93,363.7 768.88,361.43 767.53,357.59C766.18,353.75 765.91,351.67 765.12,348.23C764.33,344.8 764.15,342.95 763.58,340.41C763.01,337.88 762.8,337.03 762.28,335.55C761.75,334.08 761.51,333.49 760.94,333.03C760.36,332.58 759.81,332.67 759.4,333.27" style="fill-rule:nonzero;stroke:black;stroke-width:1px;"/>
                </g>
                <g transform="matrix(1,0,0,1,-218.222,-286.357)">
                    <path d="M967.74,338.49C967.71,337.77 967.24,337.17 966.47,336.32C965.7,335.47 965.26,335.02 963.88,334.24C962.5,333.47 961.55,332.94 959.58,332.43C957.61,331.93 956.47,331.67 954.02,331.72C951.56,331.77 950.18,331.86 947.31,332.69C944.43,333.53 942.76,334.19 939.64,335.89C936.53,337.58 934.87,338.81 931.73,341.19C928.59,343.56 926.72,344.78 923.94,347.76C921.15,350.74 919.64,352.57 917.81,356.07C915.97,359.57 915.33,361.67 914.77,365.26C914.22,368.86 914.18,370.71 915.02,374.04C915.87,377.37 916.7,379.22 919.02,381.9C921.34,384.58 923.11,385.77 926.61,387.42C930.11,389.07 932.26,389.54 936.54,390.14C940.82,390.74 943.27,390.66 947.99,390.41C952.71,390.16 955.45,389.72 960.15,388.91C964.84,388.1 967.4,387.34 971.45,386.36C975.51,385.38 977.55,384.91 980.41,384.01C983.28,383.12 984.14,382.6 985.78,381.91C987.43,381.22 988.11,381.04 988.64,380.56C989.17,380.09 989.11,379.74 988.41,379.53C987.71,379.33 986.94,379.3 985.14,379.54C983.35,379.78 982.33,379.92 979.44,380.73C976.56,381.54 974.68,382.47 970.73,383.59C966.78,384.7 964.26,385.47 959.69,386.3C955.11,387.13 952.41,387.54 947.86,387.74C943.32,387.94 940.94,387.94 936.96,387.32C932.97,386.69 931.04,386.13 927.95,384.63C924.85,383.12 923.43,382.06 921.48,379.78C919.52,377.5 918.88,376.05 918.16,373.24C917.45,370.43 917.42,368.89 917.89,365.74C918.36,362.59 918.87,360.66 920.53,357.49C922.19,354.32 923.55,352.62 926.18,349.89C928.81,347.16 930.65,345.99 933.68,343.85C936.71,341.71 938.37,340.59 941.33,339.21C944.28,337.82 945.9,337.56 948.45,336.92C951,336.28 952.1,336.05 954.09,336.02C956.09,336 956.86,336.36 958.43,336.79C960,337.22 960.74,337.66 961.93,338.16C963.12,338.66 963.44,338.94 964.37,339.29C965.3,339.64 965.91,340.08 966.59,339.92C967.26,339.76 967.76,339.21 967.74,338.49" style="fill-rule:nonzero;stroke:black;stroke-width:1px;"/>
                </g>
                <g transform="matrix(1,0,0,1,-218.222,-286.357)">
                    <path d="M1007.05,343.1C1006.49,343.42 1006.2,343.89 1005.85,345.04C1005.5,346.18 1005.21,346.8 1005.29,348.83C1005.36,350.87 1005.52,352.27 1006.23,355.21C1006.95,358.14 1007.78,360.07 1008.88,363.51C1009.97,366.94 1010.55,369.04 1011.73,372.39C1012.91,375.73 1013.48,377.83 1014.78,380.24C1016.08,382.66 1017.13,383.66 1018.24,384.47C1019.34,385.28 1019.83,385.22 1020.31,384.3C1020.78,383.37 1021.06,382.29 1020.63,379.84C1020.2,377.4 1019.39,375.45 1018.16,372.08C1016.92,368.72 1015.75,366.53 1014.44,363.01C1013.14,359.48 1012.56,357.51 1011.61,354.46C1010.67,351.4 1010.35,349.93 1009.73,347.72C1009.11,345.52 1008.72,344.78 1008.52,343.42C1008.32,342.07 1008.3,341.63 1008.74,340.95C1009.19,340.27 1009.43,340.3 1010.75,340C1012.06,339.69 1012.88,339.74 1015.3,339.42C1017.73,339.1 1019.45,338.74 1022.88,338.39C1026.3,338.05 1028.5,337.77 1032.42,337.69C1036.33,337.61 1038.37,337.78 1042.44,337.98C1046.52,338.18 1048.89,338.31 1052.79,338.68C1056.68,339.06 1058.92,339.63 1061.93,339.85C1064.93,340.08 1066.59,340.09 1067.81,339.81C1069.03,339.52 1069.1,339.05 1068.01,338.42C1066.92,337.8 1065.34,337.25 1062.35,336.68C1059.36,336.11 1057.02,335.89 1053.07,335.55C1049.12,335.21 1046.73,335.21 1042.6,334.97C1038.47,334.74 1036.43,334.49 1032.43,334.38C1028.43,334.27 1026.18,334.29 1022.61,334.41C1019.04,334.52 1017.22,334.46 1014.58,334.95C1011.94,335.45 1011.04,335.96 1009.43,336.89C1007.82,337.82 1007.29,338.28 1006.52,339.62C1005.75,340.95 1005.63,341.77 1005.58,343.56C1005.53,345.35 1005.78,346.17 1006.28,348.56C1006.78,350.95 1007.17,352.38 1008.09,355.52C1009.02,358.65 1009.75,360.62 1010.91,364.23C1012.07,367.84 1012.81,370.16 1013.91,373.55C1015,376.94 1015.37,378.96 1016.38,381.17C1017.4,383.37 1018.23,384.12 1018.98,384.56C1019.73,385 1020.19,384.61 1020.13,383.38C1020.06,382.16 1019.63,380.89 1018.67,378.44C1017.7,375.98 1016.5,374.3 1015.31,371.09C1014.12,367.88 1013.59,365.8 1012.72,362.4C1011.85,359.01 1011.58,356.94 1010.97,354.12C1010.37,351.3 1010.07,350.08 1009.68,348.3C1009.3,346.53 1009.27,346.23 1009.06,345.25C1008.85,344.27 1009.03,343.85 1008.63,343.42C1008.22,342.99 1007.6,342.78 1007.05,343.1" style="fill-rule:nonzero;stroke:black;stroke-width:1px;"/>
                </g>
                <g transform="matrix(1,0,0,1,-218.222,-286.357)">
                    <path d="M1082.33,365.49C1082.63,366 1082.89,366.35 1084.01,366.61C1085.13,366.88 1085.96,367.13 1087.93,366.82C1089.91,366.51 1091.32,366.1 1093.89,365.08C1096.47,364.05 1097.96,363.16 1100.81,361.71C1103.67,360.27 1105.43,359.46 1108.19,357.85C1110.94,356.24 1112.53,355.43 1114.59,353.64C1116.66,351.86 1117.47,350.85 1118.52,348.91C1119.56,346.96 1119.96,346 1119.83,343.91C1119.71,341.83 1119.42,340.5 1117.89,338.49C1116.35,336.48 1115.01,335.19 1112.15,333.86C1109.29,332.52 1107.41,332.16 1103.6,331.81C1099.8,331.47 1097.56,331.42 1093.1,332.14C1088.64,332.87 1085.94,333.51 1081.29,335.45C1076.65,337.4 1073.98,338.84 1069.87,341.87C1065.75,344.9 1063.55,346.8 1060.71,350.61C1057.87,354.43 1056.59,356.75 1055.65,360.93C1054.71,365.12 1054.66,367.43 1056.01,371.53C1057.36,375.63 1058.85,377.87 1062.41,381.43C1065.97,384.99 1068.58,386.71 1073.81,389.31C1079.04,391.91 1082.35,392.94 1088.56,394.43C1094.77,395.91 1098.44,396.32 1104.85,396.73C1111.27,397.14 1114.77,396.99 1120.65,396.47C1126.53,395.96 1129.39,395.4 1134.26,394.16C1139.13,392.93 1141.5,391.89 1145.01,390.29C1148.51,388.69 1149.89,387.7 1151.8,386.14C1153.7,384.58 1154.14,383.38 1154.53,382.48C1154.92,381.59 1154.6,381.36 1153.74,381.67C1152.89,381.97 1152.23,382.77 1150.25,384C1148.27,385.23 1147.16,386.23 1143.85,387.83C1140.54,389.44 1138.36,390.69 1133.69,392.03C1129.01,393.36 1126.21,393.95 1120.47,394.51C1114.72,395.06 1111.26,395.22 1104.97,394.82C1098.69,394.42 1095.07,393.99 1089.03,392.5C1082.99,391.02 1079.77,389.93 1074.78,387.39C1069.78,384.84 1067.36,383.11 1064.07,379.78C1060.78,376.46 1059.54,374.42 1058.34,370.76C1057.15,367.1 1057.22,365.22 1058.08,361.49C1058.95,357.75 1060.03,355.61 1062.68,352.09C1065.33,348.56 1067.4,346.7 1071.32,343.85C1075.23,341 1077.83,339.61 1082.27,337.84C1086.71,336.07 1089.33,335.51 1093.51,334.99C1097.7,334.47 1099.82,334.69 1103.19,335.23C1106.55,335.77 1107.97,336.53 1110.33,337.68C1112.69,338.83 1113.69,339.67 1115,340.97C1116.3,342.27 1116.68,342.92 1116.84,344.17C1116.99,345.42 1116.72,345.94 1115.78,347.21C1114.83,348.49 1114.03,349.13 1112.11,350.54C1110.18,351.95 1108.78,352.81 1106.15,354.25C1103.52,355.69 1101.77,356.52 1098.95,357.72C1096.14,358.93 1094.5,359.37 1092.06,360.26C1089.61,361.16 1088.38,361.56 1086.74,362.19C1085.09,362.81 1084.67,363.01 1083.82,363.39C1082.98,363.77 1082.83,363.67 1082.54,364.09C1082.24,364.51 1082.04,364.99 1082.33,365.49" style="fill-rule:nonzero;stroke:black;stroke-width:1px;"/>
                </g>
                <g transform="matrix(1,0,0,1,-218.222,-286.357)">
                    <path d="M1160.43,337.95C1159.89,338.65 1159.51,339.53 1159.37,341.48C1159.23,343.44 1159.19,344.69 1159.71,347.72C1160.24,350.75 1160.92,352.81 1161.99,356.64C1163.05,360.46 1163.72,362.87 1165.06,366.83C1166.4,370.8 1167.27,372.93 1168.68,376.46C1170.09,379.99 1170.64,381.9 1172.13,384.49C1173.61,387.08 1174.46,388.16 1176.11,389.4C1177.76,390.65 1178.71,390.82 1180.37,390.72C1182.04,390.61 1182.93,390.26 1184.43,388.86C1185.92,387.47 1186.83,386.41 1187.85,383.74C1188.87,381.06 1189.07,379.02 1189.53,375.48C1189.99,371.94 1189.96,369.67 1190.15,366.04C1190.33,362.41 1190.58,360.27 1190.44,357.34C1190.29,354.42 1189.96,352.87 1189.41,351.42C1188.87,349.97 1188.25,349.65 1187.73,350.09C1187.22,350.52 1186.78,351.58 1186.86,353.57C1186.93,355.56 1187.14,357.02 1188.13,360.04C1189.12,363.06 1190.01,365.25 1191.81,368.66C1193.62,372.07 1194.73,374.03 1197.16,377.1C1199.58,380.17 1201.04,381.69 1203.95,384.01C1206.86,386.33 1208.47,387.36 1211.7,388.72C1214.93,390.08 1216.87,390.51 1220.09,390.81C1223.3,391.1 1224.87,390.84 1227.77,390.21C1230.67,389.58 1232.12,389.1 1234.58,387.67C1237.04,386.23 1238.36,385.36 1240.06,383.02C1241.76,380.69 1242.34,379.07 1243.08,375.97C1243.83,372.88 1243.88,371 1243.8,367.55C1243.71,364.09 1243.48,362.16 1242.67,358.68C1241.86,355.19 1241.19,353.34 1239.76,350.13C1238.33,346.92 1237.28,345.34 1235.54,342.63C1233.79,339.93 1232.79,338.68 1231.05,336.59C1229.31,334.51 1228.22,333.61 1226.84,332.2C1225.46,330.79 1224.96,330.18 1224.17,329.53C1223.39,328.89 1223.19,329.07 1222.9,328.97C1222.61,328.88 1222.81,329.08 1222.74,329.05C1222.66,329.01 1222.7,328.75 1222.53,328.79C1222.36,328.83 1222.04,328.77 1221.9,329.24C1221.77,329.71 1221.43,330.07 1221.85,331.15C1222.27,332.24 1222.76,333.06 1224,334.66C1225.23,336.26 1226.32,337.15 1228.02,339.15C1229.72,341.15 1230.77,342.18 1232.49,344.66C1234.2,347.15 1235.23,348.6 1236.58,351.56C1237.93,354.52 1238.53,356.25 1239.23,359.45C1239.94,362.66 1240.09,364.47 1240.1,367.6C1240.11,370.72 1239.91,372.42 1239.29,375.07C1238.67,377.72 1238.33,378.97 1237.01,380.84C1235.7,382.72 1234.74,383.31 1232.72,384.44C1230.71,385.58 1229.42,385.95 1226.95,386.51C1224.48,387.07 1223.16,387.42 1220.37,387.24C1217.57,387.07 1215.85,386.78 1212.96,385.64C1210.08,384.5 1208.57,383.63 1205.94,381.52C1203.3,379.41 1201.93,377.98 1199.79,375.08C1197.65,372.18 1196.65,370.33 1195.23,367.02C1193.8,363.71 1193.62,361.42 1192.67,358.54C1191.72,355.67 1191.35,354.4 1190.49,352.66C1189.63,350.92 1189.14,350.09 1188.39,349.85C1187.65,349.62 1187.22,350 1186.77,351.5C1186.32,353.01 1186.24,354.51 1186.15,357.38C1186.06,360.26 1186.46,362.37 1186.32,365.87C1186.18,369.37 1186.03,371.59 1185.46,374.87C1184.9,378.14 1184.2,379.86 1183.48,382.24C1182.76,384.61 1182.52,385.52 1181.86,386.75C1181.2,387.98 1180.93,388.28 1180.17,388.39C1179.41,388.49 1179.01,388.42 1178.05,387.28C1177.09,386.14 1176.65,385.11 1175.37,382.69C1174.1,380.28 1173.12,378.59 1171.67,375.22C1170.22,371.84 1169.35,369.72 1168.12,365.83C1166.89,361.94 1166.33,359.54 1165.52,355.76C1164.71,351.99 1164.58,349.85 1164.05,346.95C1163.52,344.04 1163.26,343.03 1162.85,341.24C1162.45,339.46 1162.53,338.67 1162.04,338.01C1161.56,337.35 1160.96,337.26 1160.43,337.95" style="fill-rule:nonzero;stroke:black;stroke-width:1px;"/>
                </g>
            </g>
        </g>
    </g>
</svg>
